# xmcd CD database file
#
# Track frame offsets:
#	150
#	10185
#	22407
#	33892
#	46587
#	57082
#	69330
#	78540
#	90257
#	101280
#	114147
#	127875
#	140437
#	153615
#	166652
#
# Disc length: 2382 seconds
#
# Revision: 3
# Processed by: cddbd v1.5.2PL0 Copyright (c) Steve Scherf et al.
# Submitted via: CDex 1.51
#
DISCID=a7094c0f
DTITLE=Various Artist - Classic Country V12 1964-1968 D2/2
DYEAR=1999
DGENRE=Country
TTITLE0=Fist City - Loretta Lynn
TTITLE1=Girl On The Billboard - Del Reeves
TTITLE2=It's Such A Pretty World Today - Wynn Stewart
TTITLE3=The Bottle Let Me Down - Merle Haggard
TTITLE4=Waitin' In Your Welfare Line - Buck Owens
TTITLE5=All The Time - Jack Greene
TTITLE6=Yakety Axe - Chet Atkins
TTITLE7=Dreams Of The Everyday Housewife - Glen Campbell
TTITLE8=May The Bird Of Paradise Fly Up Your Nose - 'Little' Jimmy Dickens
TTITLE9=The Carroll County Accident - Porter Wagoner
TTITLE10=Saginaw, Michigan - Lefty Frizzell
TTITLE11=For Loving You - Bill Anderson And Jan Howard
TTITLE12=The Image Of Me - Conway Twitty
TTITLE13=Distant Drums - Jim Reeves
TTITLE14=I Want To Go With You - Eddy Arnold
EXTD=YEAR: 1999
EXTT0=
EXTT1=
EXTT2=
EXTT3=
EXTT4=
EXTT5=
EXTT6=
EXTT7=
EXTT8=
EXTT9=
EXTT10=
EXTT11=
EXTT12=
EXTT13=
EXTT14=
PLAYORDER=
